{"title":"The.Informant.2009.DVDRip.XviD-Emery","uid":5342011,"size":868838034,"categoryP":"video","categoryS":"movies","magnet":"?xt=urn:btih:de5b63001ac87076af740f988b8ef88dcec1046d&amp;dn=The.Informant.2009.DVDRip.XviD-Emery&amp;tr=udp%3A%2F%2Ftracker.openbittorrent.com%3A80&amp;tr=udp%3A%2F%2Fopen.demonii.com%3A1337&amp;tr=udp%3A%2F%2Ftracker.coppersurfer.tk%3A6969&amp;tr=udp%3A%2F%2Fexodus.desync.com%3A6969","seeders":0,"leechers":1,"uploader":"Emery2010","files":2,"time":1265512001,"description":"\nThe.Informant!2009.DVDRip.XviD-Emery\n\nMovie Name.....: The Informant!\nRelease Date...: February 6th, 2010\nSource.........: NTSC DVD\nFile Size......: 800 MB\nRuntime........: 108 min\nMovie IMDB.....: http://www.imdb.com/title/tt1130080/\nRatings........: 7.0/10   8,915 votes  \nGenre..........: Comedy | Crime | Drama | Thriller \nDirector.......: Steven Soderbergh\nTagline........: Based on a tattle-tale \n\nPLOT\nThe U.S. government decides to go after an agri-business giant with a\nprice-fixing accusation, based on the evidence submitted by their star witness,\nvice president turned informant Mark Whitacre....\n\nVIDEO AND AUDIO DETAILS\n\nVideo\nID                               : 0\nFormat                           : MPEG-4 Visual\nFormat profile                   : AdvancedSimple@L5\nFormat settings, BVOP            : Yes\nFormat settings, QPel            : No\nFormat settings, GMC             : No warppoints\nFormat settings, Matrix          : Default (H.263)\nMuxing mode                      : Packed bitstream\nCodec ID                         : XVID\nCodec ID/Hint                    : XviD\nDuration                         : 1h 48mn\nBit rate                         : 933 Kbps\nWidth                            : 608 pixels\nHeight                           : 336 pixels\nDisplay aspect ratio             : 16:9\nFrame rate                       : 23.976 fps\nResolution                       : 24 bits\nColorimetry                      : 4:2:0\nScan type                        : Progressive\nBits/(Pixel*Frame)               : 0.190\nStream size                      : 722 MiB (87%)\nWriting library                  : XviD 1.2.1 (UTC 2008-12-04)\n\nAudio\nID                               : 1\nFormat                           : MPEG Audio\nFormat version                   : Version 1\nFormat profile                   : Layer 3\nCodec ID                         : 55\nCodec ID/Hint                    : MP3\nDuration                         : 1h 48mn\nBit rate mode                    : Constant\nBit rate                         : 128 Kbps\nChannel(s)                       : 2 channels\nSampling rate                    : 48.0 KHz\nResolution                       : 16 bits\nStream size                      : 99.1 MiB (12%)\nAlignment                        : Aligned on interleaves\nInterleave, duration             : 42 ms (1.00 video frame)\nInterleave, preload duration     : 504 ms\n\nEXTRA NOTES:\nGot too many errors at 700 mb, so i figured id try buffing \nit up to 800 mb, came out perfect. Perfect Ar, Bitrate, Res...\nAnd its under 1 gig too :D","torrent":{"xt":"urn:btih:de5b63001ac87076af740f988b8ef88dcec1046d","amp;dn":"The.Informant.2009.DVDRip.XviD-Emery","amp;tr":["udp%3A%2F%2Ftracker.openbittorrent.com%3A80","udp%3A%2F%2Fopen.demonii.com%3A1337","udp%3A%2F%2Ftracker.coppersurfer.tk%3A6969","udp%3A%2F%2Fexodus.desync.com%3A6969"],"infoHash":"de5b63001ac87076af740f988b8ef88dcec1046d","infoHashBuffer":{"type":"Buffer","data":[222,91,99,0,26,200,112,118,175,116,15,152,139,142,248,141,206,193,4,109]},"announce":[],"urlList":[]}}